<mxfile host="Electron" agent="Mozilla/5.0 (X11; Linux x86_64) AppleWebKit/537.36 (KHTML, like Gecko) draw.io/27.0.9 Chrome/134.0.6998.205 Electron/35.4.0 Safari/537.36" version="27.0.9">
  <diagram name="Cloud Architecture" id="diagram-2">
    <mxGraphModel dx="1111" dy="570" grid="1" gridSize="10" guides="1" tooltips="1" connect="1" arrows="1" fold="1" page="1" pageScale="1" pageWidth="1100" pageHeight="850" math="0" shadow="0">
      <root>
        <mxCell id="0" />
        <mxCell id="1" parent="0" />
        <mxCell id="user" value="Usuario Final" style="shape=actor;whiteSpace=wrap;html=1;" parent="1" vertex="1">
          <mxGeometry x="80" y="385" width="60" height="80" as="geometry" />
        </mxCell>
        <mxCell id="internet" value="Internet" style="ellipse;shape=cloud;whiteSpace=wrap;html=1;" parent="1" vertex="1">
          <mxGeometry x="180" y="375" width="120" height="80" as="geometry" />
        </mxCell>
        <mxCell id="arrow-user-internet" value="" style="endArrow=classic;html=1;rounded=0;" parent="1" source="user" target="internet" edge="1">
          <mxGeometry width="50" height="50" relative="1" as="geometry">
            <mxPoint x="150" y="455" as="sourcePoint" />
            <mxPoint x="200" y="405" as="targetPoint" />
          </mxGeometry>
        </mxCell>
        <mxCell id="gcp-boundary" value="Google Cloud Platform" style="shape=rectangle;rounded=1;whiteSpace=wrap;html=1;dashed=1;strokeWidth=2;fillColor=none;" parent="1" vertex="1">
          <mxGeometry x="340" y="80" width="720" height="640" as="geometry" />
        </mxCell>
        <mxCell id="firebase-auth" value="Firebase Authentication" style="rounded=1;whiteSpace=wrap;html=1;fillColor=#FFCC99;strokeColor=#36393d;" parent="gcp-boundary" vertex="1">
          <mxGeometry x="290" y="40" width="140" height="60" as="geometry" />
        </mxCell>
        <mxCell id="cloud-run-frontend" value="Cloud Run&lt;br&gt;(Frontend - React)" style="rounded=1;whiteSpace=wrap;html=1;fillColor=#DAE8FC;strokeColor=#6c8ebf;" parent="gcp-boundary" vertex="1">
          <mxGeometry x="160" y="285" width="140" height="70" as="geometry" />
        </mxCell>
        <mxCell id="cloud-run-backend" value="Cloud Run&lt;br&gt;(Backend - Node.js)" style="rounded=1;whiteSpace=wrap;html=1;fillColor=#DAE8FC;strokeColor=#6c8ebf;" parent="gcp-boundary" vertex="1">
          <mxGeometry x="400" y="285" width="140" height="70" as="geometry" />
        </mxCell>
        <mxCell id="cloud-sql" value="Cloud SQL&lt;br&gt;(PostgreSQL)" style="shape=cylinder3;whiteSpace=wrap;html=1;boundedLbl=1;backgroundOutline=1;size=15;fillColor=#DAE8FC;strokeColor=#6c8ebf;" parent="gcp-boundary" vertex="1">
          <mxGeometry x="410" y="520" width="120" height="80" as="geometry" />
        </mxCell>
        <mxCell id="artifact-registry" value="Artifact Registry" style="rounded=1;whiteSpace=wrap;html=1;fillColor=#DAE8FC;strokeColor=#6c8ebf;" parent="gcp-boundary" vertex="1">
          <mxGeometry x="580" y="160" width="120" height="60" as="geometry" />
        </mxCell>
        <mxCell id="arrow-internet-frontend" value="HTTPS" style="endArrow=classic;html=1;rounded=0;" parent="1" source="internet" target="cloud-run-frontend" edge="1">
          <mxGeometry width="50" height="50" relative="1" as="geometry">
            <mxPoint x="310" y="425" as="sourcePoint" />
            <mxPoint x="480" y="425" as="targetPoint" />
          </mxGeometry>
        </mxCell>
        <mxCell id="arrow-frontend-backend" value="Peticiones API (HTTPS)" style="endArrow=classic;html=1;rounded=0;" parent="1" source="cloud-run-frontend" target="cloud-run-backend" edge="1">
          <mxGeometry width="50" height="50" relative="1" as="geometry">
            <mxPoint x="460" y="330" as="sourcePoint" />
            <mxPoint x="540" y="330" as="targetPoint" />
          </mxGeometry>
        </mxCell>
        <mxCell id="arrow-backend-db" value="Conexi칩n SQL" style="endArrow=classic;html=1;rounded=0;" parent="1" source="cloud-run-backend" target="cloud-sql" edge="1">
          <mxGeometry width="50" height="50" relative="1" as="geometry">
            <mxPoint x="470" y="365" as="sourcePoint" />
            <mxPoint x="470" y="510" as="targetPoint" />
          </mxGeometry>
        </mxCell>
        <mxCell id="arrow-registry-frontend" value="Despliega desde Imagen Docker" style="endArrow=classic;html=1;rounded=0;dashed=1;" parent="1" source="artifact-registry" target="cloud-run-frontend" edge="1">
          <mxGeometry x="-0.0001" width="50" height="50" relative="1" as="geometry">
            <mxPoint x="640" y="230" as="sourcePoint" />
            <mxPoint x="310" y="300" as="targetPoint" />
            <Array as="points">
              <mxPoint x="640" y="260" />
              <mxPoint x="230" y="260" />
            </Array>
            <mxPoint as="offset" />
          </mxGeometry>
        </mxCell>
        <mxCell id="arrow-registry-backend" value="Despliega desde Imagen Docker" style="endArrow=classic;html=1;rounded=0;dashed=1;" parent="1" source="artifact-registry" target="cloud-run-backend" edge="1">
          <mxGeometry width="50" height="50" relative="1" as="geometry">
            <mxPoint x="640" y="230" as="sourcePoint" />
            <mxPoint x="550" y="300" as="targetPoint" />
            <Array as="points">
              <mxPoint x="640" y="260" />
              <mxPoint x="470" y="260" />
            </Array>
          </mxGeometry>
        </mxCell>
        <mxCell id="arrow-frontend-auth" value="Autenticaci칩n" style="endArrow=classic;html=1;rounded=0;" parent="1" source="cloud-run-frontend" target="firebase-auth" edge="1">
          <mxGeometry width="50" height="50" relative="1" as="geometry">
            <mxPoint x="230" y="285" as="sourcePoint" />
            <mxPoint x="360" y="110" as="targetPoint" />
            <Array as="points">
              <mxPoint x="230" y="180" />
              <mxPoint x="360" y="180" />
            </Array>
          </mxGeometry>
        </mxCell>
        <mxCell id="arrow-backend-auth" value="Verificaci칩n de Token" style="endArrow=classic;html=1;rounded=0;dashed=1;" parent="1" source="cloud-run-backend" target="firebase-auth" edge="1">
          <mxGeometry width="50" height="50" relative="1" as="geometry">
            <mxPoint x="470" y="285" as="sourcePoint" />
            <mxPoint x="430" y="110" as="targetPoint" />
            <Array as="points">
              <mxPoint x="470" y="200" />
              <mxPoint x="360" y="200" />
            </Array>
          </mxGeometry>
        </mxCell>
        <mxCell id="-gS6i7Mo2vYTBnVP45N2-1" value="Arquitectura dise침ada por:&lt;div&gt;Rolando Llamas&lt;/div&gt;" style="text;html=1;align=center;verticalAlign=middle;whiteSpace=wrap;rounded=0;" vertex="1" parent="1">
          <mxGeometry x="350" y="30" width="340" height="30" as="geometry" />
        </mxCell>
      </root>
    </mxGraphModel>
  </diagram>
</mxfile>
